<?xml version="1.0" encoding="UTF-8"?>
<svg width="18px" height="12px" viewBox="0 0 18 12" version="1.1" xmlns="http://www.w3.org/2000/svg" xmlns:xlink="http://www.w3.org/1999/xlink">
    <title>537C40B5-6D6C-4D69-B49B-708A6E23088B</title>
    <g id="Desktop" stroke="none" stroke-width="1" fill="none" fill-rule="evenodd">
        <g id="Product-Detail-Page" transform="translate(-592.000000, -550.000000)" fill-rule="nonzero">
            <g id="Info-Box" transform="translate(512.000000, 48.000000)">
                <g id="Payments" transform="translate(-0.000000, 500.000000)">
                    <g id="icons8-mastercard" transform="translate(80.800000, 2.000000)">
                        <path d="M16.8,10.4 C16.8,11.2836 16.0836,12 15.2,12 L1.6,12 C0.7164,12 0,11.2836 0,10.4 L0,1.6 C0,0.7164 0.7164,0 1.6,0 L15.2,0 C16.0836,0 16.8,0.7164 16.8,1.6 L16.8,10.4 Z" id="Path" fill="#3F51B5"></path>
                        <path d="M10.8,2 C8.590861,2 6.8,3.790861 6.8,6 C6.8,8.209139 8.590861,10 10.8,10 C13.009139,10 14.8,8.209139 14.8,6 C14.8,3.790861 13.009139,2 10.8,2 Z" id="Path" fill="#FFC107"></path>
                        <path d="M7.6056,8.4 C7.42,8.1532 7.2604,7.8864 7.1352,7.6 L9.2652,7.6 C9.3764,7.3456 9.4636,7.0784 9.52,6.8 L6.8808,6.8 C6.828,6.5416 6.8,6.2744 6.8,6 L9.6,6 C9.6,5.7256 9.572,5.4584 9.5196,5.2 L6.8804,5.2 C6.9372,4.9216 7.024,4.6544 7.1352,4.4 L9.2652,4.4 C9.14,4.1136 8.9808,3.8468 8.7948,3.6 L7.6056,3.6 C7.7804,3.368 7.9776,3.1512 8.198,2.962 C7.4988,2.3636 6.5924,2 5.6,2 C3.3908,2 1.6,3.7908 1.6,6 C1.6,8.2092 3.3908,10 5.6,10 C6.9076,10 8.0648,9.37 8.7944,8.4 L7.6056,8.4 Z" id="Path" fill="#FF3D00"></path>
                    </g>
                </g>
            </g>
        </g>
    </g>
</svg>