<?xml version="1.0" encoding="UTF-8"?>
<svg width="17px" height="12px" viewBox="0 0 17 12" version="1.1" xmlns="http://www.w3.org/2000/svg" xmlns:xlink="http://www.w3.org/1999/xlink">
    <title>50FCB158-8C47-45A7-8993-F463C9B0F145</title>
    <g id="Desktop" stroke="none" stroke-width="1" fill="none" fill-rule="evenodd">
        <g id="Product-Detail-Page" transform="translate(-572.000000, -550.000000)" fill-rule="nonzero">
            <g id="Info-Box" transform="translate(512.000000, 48.000000)">
                <g id="Payments" transform="translate(-0.000000, 500.000000)">
                    <g id="icons8-visa" transform="translate(60.000000, 2.000000)">
                        <path d="M16.8,10.4 C16.8,11.2836 16.0836,12 15.2,12 L1.6,12 C0.7164,12 0,11.2836 0,10.4 L0,1.6 C0,0.7164 0.7164,0 1.6,0 L15.2,0 C16.0836,0 16.8,0.7164 16.8,1.6 L16.8,10.4 Z" id="Path" fill="#1565C0"></path>
                        <path d="M4.8744,4 L3.824,7.1328 C3.824,7.1328 3.5572,5.8076 3.5308,5.6412 C2.9328,4.2768 2.0504,4.3528 2.0504,4.3528 L3.0904,8.4 L3.0904,8.3992 L4.3548,8.3992 L6.1032,4 L4.8744,4 Z M5.8756,8.4 L7.024,8.4 L7.7184,4 L6.5556,4 L5.8756,8.4 Z M14.0032,4 L12.7948,4 L10.9108,8.4 L12.0516,8.4 L12.2868,7.7716 L13.7252,7.7716 L13.8476,8.4 L14.8928,8.4 L14.0032,4 Z M12.6052,6.9312 L13.2304,5.2684 L13.5576,6.9312 L12.6052,6.9312 Z M9.3476,5.2824 C9.3476,5.04 9.5468,4.8596 10.118,4.8596 C10.4892,4.8596 10.9144,5.1292 10.9144,5.1292 L11.1008,4.2056 C11.1008,4.2056 10.5576,3.9996 10.0244,3.9996 C8.8168,3.9996 8.194,4.5772 8.194,5.3084 C8.194,6.6308 9.7856,6.4496 9.7856,7.1288 C9.7856,7.2452 9.6932,7.5144 9.0304,7.5144 C8.3656,7.5144 7.9268,7.2708 7.9268,7.2708 L7.7288,8.1572 C7.7288,8.1572 8.154,8.3996 8.9756,8.3996 C9.7992,8.3996 10.9416,7.7836 10.9416,6.8988 C10.9416,5.8344 9.3476,5.7576 9.3476,5.2824 Z" id="Shape" fill="#FFFFFF"></path>
                        <path d="M3.6848,6.378 L3.2984,4.4788 C3.2984,4.4788 3.1236,4.0672 2.6692,4.0672 C2.2148,4.0672 0.8932,4.0672 0.8932,4.0672 C0.8932,4.0672 3.1576,4.736 3.6848,6.378 Z" id="Path" fill="#FFC107"></path>
                    </g>
                </g>
            </g>
        </g>
    </g>
</svg>