<?xml version="1.0" encoding="UTF-8"?>
<svg width="30px" height="12px" viewBox="0 0 30 12" version="1.1" xmlns="http://www.w3.org/2000/svg" xmlns:xlink="http://www.w3.org/1999/xlink">
    <title>4C27EF2C-9F55-41A4-9757-A344EBBC8641</title>
    <g id="Desktop" stroke="none" stroke-width="1" fill="none" fill-rule="evenodd">
        <g id="Product-Detail-Page" transform="translate(-613.000000, -550.000000)" fill="#4B4B4B" fill-rule="nonzero">
            <g id="Info-Box" transform="translate(512.000000, 48.000000)">
                <g id="Payments" transform="translate(-0.000000, 500.000000)">
                    <g id="icons8-apple_pay" transform="translate(101.600000, 2.000000)">
                        <path d="M5.19176718,1.566 C4.85636718,1.9764 4.31996718,2.3004 3.78296718,2.2536 C3.71636718,1.6992 3.97916718,1.1088 4.28696718,0.7452 C4.62176718,0.3234 5.20856718,0.0228 5.68376718,0 C5.73956718,0.5778 5.52176718,1.1442 5.19176718,1.566 M5.62136718,2.541 C4.83896718,2.541 4.27916718,2.9646 3.91376718,2.9646 C3.54236718,2.9646 2.98856718,2.5464 2.34836718,2.5464 C1.56596718,2.5464 0.79976718,3.0336 0.39536718,3.744 C-0.43503282,5.1642 0.17936718,7.2672 0.98216718,8.4234 C1.37576718,8.9958 1.85036718,9.6 2.49056718,9.6 C3.07736718,9.5778 3.27596718,9.2472 3.98456718,9.2472 C4.69856718,9.2472 4.90976718,9.6 5.54996718,9.6 C6.19016718,9.6 6.57836718,9.018 6.97136718,8.445 C7.42016718,7.7958 7.60256718,7.1622 7.61336718,7.1292 C7.60256718,7.1184 6.37376718,6.6504 6.36236718,5.241 C6.35156718,4.0632 7.33136718,3.501 7.37576718,3.468 C6.82196718,2.6538 5.90576718,2.5404 5.69276718,2.5404 L5.62136718,2.5404 L5.62136718,2.541 Z M13.6127672,1.2 L10.3499672,1.2 L10.3499672,9.5994 L11.7089672,9.5994 L11.7089672,6.7998 L13.5683672,6.7998 C15.2747672,6.7998 16.5005672,5.6376 16.5005672,4.0002 C16.5005672,2.3628 15.2969672,1.2 13.6127672,1.2 Z M13.2821672,5.6796 L11.7089672,5.6796 L11.7089672,2.3196 L13.2821672,2.3196 C14.4533672,2.3196 15.1415672,2.9382 15.1415672,3.9996 C15.1415672,5.061 14.4587672,5.6796 13.2821672,5.6796 Z M19.6511672,3.3 C18.2171672,3.3 17.1575672,4.0944 17.1179672,5.1864 L18.3341672,5.1864 C18.4343672,4.6674 18.9311672,4.3272 19.6121672,4.3272 C20.4377672,4.3272 20.9045672,4.6998 20.9045672,5.3868 L20.9051672,5.8608 L19.2167672,5.949 C17.6483672,6.0408 16.7999672,6.663 16.7999672,7.7442 C16.7999672,8.8362 17.6759672,9.561 18.9311672,9.561 C19.7789672,9.561 20.5661672,9.1452 20.9225672,8.4852 L20.9501672,8.4852 L20.9501672,9.4962 L22.1999674,9.4962 L22.1999674,5.301 C22.2005672,4.0836 21.1961672,3.3 19.6511672,3.3 Z M20.9003672,7.2084 C20.9003672,7.998 20.2085672,8.5602 19.2935672,8.5602 C18.5741672,8.5602 18.1163672,8.2248 18.1163672,7.7118 C18.1163672,7.182 18.5567672,6.8742 19.3997672,6.825 L20.9045672,6.7146 L20.9003672,7.2084 Z M27.4145672,3.3 L25.8095672,8.4528 L25.7819672,8.4528 L24.1763672,3.3 L22.7519672,3.3 L25.0607672,9.6504 L24.9371672,10.0368 C24.7283672,10.6914 24.3911672,10.9434 23.7887672,10.9434 C23.6855672,10.9434 23.4905672,10.9332 23.4005672,10.9218 L23.4005672,11.9688 C23.4911672,11.9892 23.8079672,12 23.9063672,12 C25.2353672,12 25.8599672,11.4966 26.4065672,9.969 L28.7999672,3.3 L27.4145672,3.3 Z" id="Shape"></path>
                    </g>
                </g>
            </g>
        </g>
    </g>
</svg>