<?xml version="1.0" encoding="UTF-8"?>
<svg width="12px" height="14px" viewBox="0 0 12 14" version="1.1" xmlns="http://www.w3.org/2000/svg" xmlns:xlink="http://www.w3.org/1999/xlink">
    <title>2DE24A9B-CD8E-4802-9766-EA7CEEC4AFC2</title>
    <g id="Desktop" stroke="none" stroke-width="1" fill="none" fill-rule="evenodd">
        <g id="Product-Detail-Page" transform="translate(-513.000000, -521.000000)" fill-rule="nonzero">
            <g id="Info-Box" transform="translate(512.000000, 48.000000)">
                <g id="Trade-Assurance" transform="translate(0.000000, 472.000000)">
                    <g id="icons8-security_lock" transform="translate(1.400000, 1.000000)">
                        <path d="M11.1961026,2.8 C11.1961026,2.8 11.5457526,10.85 5.66050258,14 C-0.345847416,10.85 0.00380258408,2.8 0.00380258408,2.8 C2.80205258,2.8 5.59995258,0 5.59995258,0 C5.59995258,0 8.04820258,2.8 11.1961026,2.8 Z" id="Path" fill="#FFC107"></path>
                        <path d="M6.99995258,5.6 C6.99995258,4.82685 6.37310258,4.2 5.59995258,4.2 C4.82680258,4.2 4.19995258,4.82685 4.19995258,5.6 C4.19995258,6.1145 4.48065258,6.55935 4.89435258,6.8026 L4.19995258,9.45 L6.99995258,9.45 L6.30555258,6.8026 C6.71925258,6.55935 6.99995258,6.1145 6.99995258,5.6 Z" id="Path" fill="#5D4037"></path>
                    </g>
                </g>
            </g>
        </g>
    </g>
</svg>